<mxfile host="app.diagrams.net" agent="Mozilla/5.0 (Macintosh; Intel Mac OS X 10_15_7) AppleWebKit/537.36 (KHTML, like Gecko) Chrome/126.0.0.0 Safari/537.36" version="24.7.6">
  <diagram id="R2lEEEUBdFMjLlhIrx00" name="Page-1">
    <mxGraphModel dx="1395" dy="634" grid="1" gridSize="10" guides="1" tooltips="1" connect="1" arrows="1" fold="1" page="1" pageScale="1" pageWidth="850" pageHeight="1100" math="0" shadow="0" extFonts="Permanent Marker^https://fonts.googleapis.com/css?family=Permanent+Marker">
      <root>
        <mxCell id="0" />
        <mxCell id="1" parent="0" />
        <mxCell id="_KSG2AC-yxOnR6Cunkeg-1" value="ContaEntity" style="swimlane;childLayout=stackLayout;horizontal=1;startSize=50;horizontalStack=0;rounded=1;fontSize=14;fontStyle=0;strokeWidth=2;resizeParent=0;resizeLast=1;shadow=0;dashed=0;align=center;arcSize=4;whiteSpace=wrap;html=1;" vertex="1" parent="1">
          <mxGeometry x="290" y="110" width="180" height="150" as="geometry" />
        </mxCell>
        <mxCell id="_KSG2AC-yxOnR6Cunkeg-2" value="&lt;div&gt;+ data_vencimento (dateTime)&lt;/div&gt;&lt;div&gt;+ data_pagamento ( dateTime)&lt;/div&gt;&lt;div&gt;+ valor ( decimal)&lt;/div&gt;&lt;div&gt;+ descricao ( string)&lt;/div&gt;&lt;div&gt;+ situacao ( SituacaoEnum&lt;/div&gt;" style="align=left;strokeColor=none;fillColor=none;spacingLeft=4;fontSize=12;verticalAlign=top;resizable=0;rotatable=0;part=1;html=1;" vertex="1" parent="_KSG2AC-yxOnR6Cunkeg-1">
          <mxGeometry y="50" width="180" height="100" as="geometry" />
        </mxCell>
        <mxCell id="_KSG2AC-yxOnR6Cunkeg-25" style="edgeStyle=orthogonalEdgeStyle;rounded=0;orthogonalLoop=1;jettySize=auto;html=1;entryX=1;entryY=0.25;entryDx=0;entryDy=0;" edge="1" parent="1" source="_KSG2AC-yxOnR6Cunkeg-23" target="_KSG2AC-yxOnR6Cunkeg-2">
          <mxGeometry relative="1" as="geometry">
            <mxPoint x="790" y="448.48" as="targetPoint" />
          </mxGeometry>
        </mxCell>
        <mxCell id="_KSG2AC-yxOnR6Cunkeg-23" value="SituacaoEnum" style="swimlane;childLayout=stackLayout;horizontal=1;startSize=50;horizontalStack=0;rounded=1;fontSize=14;fontStyle=0;strokeWidth=2;resizeParent=0;resizeLast=1;shadow=0;dashed=0;align=center;arcSize=4;whiteSpace=wrap;html=1;" vertex="1" parent="1">
          <mxGeometry x="600" y="140" width="180" height="90" as="geometry" />
        </mxCell>
        <mxCell id="_KSG2AC-yxOnR6Cunkeg-24" value="* PAGO&lt;div&gt;* ABERTO&lt;/div&gt;" style="align=left;strokeColor=none;fillColor=none;spacingLeft=4;fontSize=12;verticalAlign=top;resizable=0;rotatable=0;part=1;html=1;" vertex="1" parent="_KSG2AC-yxOnR6Cunkeg-23">
          <mxGeometry y="50" width="180" height="40" as="geometry" />
        </mxCell>
        <mxCell id="_KSG2AC-yxOnR6Cunkeg-31" value="AbstractEntity" style="swimlane;childLayout=stackLayout;horizontal=1;startSize=50;horizontalStack=0;rounded=1;fontSize=14;fontStyle=0;strokeWidth=2;resizeParent=0;resizeLast=1;shadow=0;dashed=0;align=center;arcSize=4;whiteSpace=wrap;html=1;" vertex="1" parent="1">
          <mxGeometry x="70" y="20" width="150" height="90" as="geometry" />
        </mxCell>
        <mxCell id="_KSG2AC-yxOnR6Cunkeg-32" value="+ id (INT)" style="align=left;strokeColor=none;fillColor=none;spacingLeft=4;fontSize=12;verticalAlign=top;resizable=0;rotatable=0;part=1;html=1;" vertex="1" parent="_KSG2AC-yxOnR6Cunkeg-31">
          <mxGeometry y="50" width="150" height="40" as="geometry" />
        </mxCell>
        <mxCell id="_KSG2AC-yxOnR6Cunkeg-33" style="edgeStyle=orthogonalEdgeStyle;rounded=0;orthogonalLoop=1;jettySize=auto;html=1;entryX=0.45;entryY=1.025;entryDx=0;entryDy=0;entryPerimeter=0;" edge="1" parent="1" source="_KSG2AC-yxOnR6Cunkeg-2" target="_KSG2AC-yxOnR6Cunkeg-32">
          <mxGeometry relative="1" as="geometry" />
        </mxCell>
      </root>
    </mxGraphModel>
  </diagram>
</mxfile>
